# xmcd CD database file
#
# Track frame offsets:
#	150
#	20027
#	38202
#	61010
#	81755
#	106952
#	128482
#	149460
#	173707
#	198705
#	215197
#
# Disc length: 3189 seconds
#
# Revision: 0
# Processed by: cddbd v1.5.1PL0 Copyright (c) Steve Scherf et al.
# Submitted via: CDex 1.51
#
DISCID=9d0c730b
DTITLE=Mark Portmann - Westside
DYEAR=2003
DGENRE=Jazz
TTITLE0=Westside
TTITLE1=All That I Am
TTITLE2=In The Pocket
TTITLE3=Where You Belong
TTITLE4=For Your Love
TTITLE5=Street Smart
TTITLE6=Acquiesce
TTITLE7=Pleasure
TTITLE8=So Far From You
TTITLE9=Swingers
TTITLE10=Asian Angel
EXTD=YEAR: 2003
EXTT0=
EXTT1=
EXTT2=
EXTT3=
EXTT4=
EXTT5=
EXTT6=
EXTT7=
EXTT8=
EXTT9=
EXTT10=
PLAYORDER=
